# xmcd
#
# Track frame offsets:
#	150
#	13850
#	39535
#	62225
#	89647
#	107700
#	129847
#	172650
#
# Disc length: 2537 seconds
#
# Revision: 3
# Processed by: cddbd v1.5.2PL0 Copyright (c) Steve Scherf et al.
# Submitted via: EasyCDDAExtractor 16.1.0.1
#
DISCID=6109e708
DTITLE=Etta James - Live From San Fransciso
DYEAR=1994
DGENRE=Blues
TTITLE0=I Just Want To Make Love To You
TTITLE1=Take It To The Limit
TTITLE2=Baby What You Want Me To Do
TTITLE3=Sugar On the Floor
TTITLE4=Tell Mama
TTITLE5=I'd Rather Go Blind
TTITLE6=Otis Redding Medley - Hard To Handle/Just One More Day/Can't Turn You L
TTITLE6=oose
TTITLE7=Born Blue
EXTD=010058212522
EXTT0=
EXTT1=
EXTT2=
EXTT3=
EXTT4=
EXTT5=
EXTT6=
EXTT7=
PLAYORDER=
